<svg xmlns="http://www.w3.org/2000/svg" width="48" height="48" viewBox="0 0 48 48" fill="none">
    <circle cx="24" cy="24" r="24" fill="#796ABF"/>
    <path d="M22.6357 7.98178C18.9416 8.26992 15.4419 9.75108 12.6659 12.2011C9.88991 14.6513 7.98851 17.9371 7.24923 21.5618C6.50997 25.1864 6.97299 28.9528 8.56834 32.2914C10.1637 35.63 12.8046 38.3592 16.0918 40.0664L17.9197 35.013L18.492 33.431C16.657 32.2516 15.2537 30.5109 14.492 28.4691C13.7304 26.4274 13.6513 24.1944 14.2666 22.1042C14.8818 20.0139 16.1586 18.1785 17.9056 16.8727C19.6526 15.5669 21.7759 14.8607 23.9584 14.8598C26.1408 14.8589 28.2649 15.5634 30.0129 16.8678C31.761 18.1722 33.039 20.0065 33.6561 22.0964C34.273 24.1862 34.1958 26.4192 33.4358 28.4615C32.6758 30.5038 31.274 32.2457 29.4399 33.4266L30.0133 35.013L31.8408 40.0653C35.3304 38.253 38.0852 35.2923 39.6389 31.6847C41.1926 28.0772 41.4496 24.0444 40.3664 20.2694C39.2832 16.4943 36.9266 13.209 33.6952 10.9698C30.4639 8.7305 26.5565 7.67491 22.635 7.98178H22.6357Z"
          fill="white"/>
</svg>
